<?xml version="1.0" encoding="UTF-8" standalone="no"?>
<!-- Created with Inkscape (http://www.inkscape.org/) -->

<svg
   xmlns:dc="http://purl.org/dc/elements/1.1/"
   xmlns:cc="http://creativecommons.org/ns#"
   xmlns:rdf="http://www.w3.org/1999/02/22-rdf-syntax-ns#"
   xmlns:svg="http://www.w3.org/2000/svg"
   xmlns="http://www.w3.org/2000/svg"
   xmlns:sodipodi="http://sodipodi.sourceforge.net/DTD/sodipodi-0.dtd"
   xmlns:inkscape="http://www.inkscape.org/namespaces/inkscape"
   width="214.32762mm"
   height="173.92953mm"
   viewBox="0 0 759.42858 616.28575"
   id="svg5027"
   version="1.1"
   inkscape:version="0.91 r13725"
   sodipodi:docname="content layouts.svg">
  <defs
     id="defs5029" />
  <sodipodi:namedview
     id="base"
     pagecolor="#ffffff"
     bordercolor="#666666"
     borderopacity="1.0"
     inkscape:pageopacity="0.0"
     inkscape:pageshadow="2"
     inkscape:zoom="1.4"
     inkscape:cx="424.96272"
     inkscape:cy="74.350102"
     inkscape:document-units="px"
     inkscape:current-layer="layer1"
     showgrid="false"
     inkscape:window-width="1920"
     inkscape:window-height="1137"
     inkscape:window-x="1912"
     inkscape:window-y="-8"
     inkscape:window-maximized="1"
     fit-margin-top="0"
     fit-margin-left="0"
     fit-margin-right="0"
     fit-margin-bottom="0" />
  <metadata
     id="metadata5032">
    <rdf:RDF>
      <cc:Work
         rdf:about="">
        <dc:format>image/svg+xml</dc:format>
        <dc:type
           rdf:resource="http://purl.org/dc/dcmitype/StillImage" />
        <dc:title></dc:title>
      </cc:Work>
    </rdf:RDF>
  </metadata>
  <g
     inkscape:label="Layer 1"
     inkscape:groupmode="layer"
     id="layer1"
     transform="translate(-16.714264,-36.719314)">
    <rect
       y="23.862251"
       x="-487.57141"
       height="207"
       width="368"
       id="rect5677"
       style="opacity:1;fill:#000000;fill-opacity:1;stroke:none" />
    <path
       id="path5679"
       d="m -471.57143,34.330634 0,21.24805 0,1.19336 0,21.24609 336,0 0,-21.24609 0,-1.19336 0,-21.24805 -336,0 z"
       style="opacity:1;fill:#cccccc;fill-opacity:1;stroke:none"
       inkscape:connector-curvature="0" />
    <rect
       y="197.81197"
       x="-471.57141"
       height="22.440353"
       width="336"
       id="rect5681"
       style="opacity:1;fill:#cccccc;fill-opacity:1;stroke:none" />
    <rect
       style="opacity:1;fill:#cccccc;fill-opacity:1;stroke:none"
       id="rect5683"
       width="336"
       height="22.440353"
       x="-471.57141"
       y="170.5652" />
    <rect
       style="opacity:1;fill:#cccccc;fill-opacity:1;stroke:none"
       id="rect5685"
       width="336"
       height="22.440353"
       x="-471.57141"
       y="88.824837" />
    <rect
       style="opacity:1;fill:#cccccc;fill-opacity:1;stroke:none"
       id="rect5687"
       width="336"
       height="22.440353"
       x="-471.57141"
       y="116.07157" />
    <rect
       y="143.31837"
       x="-471.57141"
       height="22.440353"
       width="336"
       id="rect5689"
       style="opacity:1;fill:#cccccc;fill-opacity:1;stroke:none" />
    <g
       id="g7236"
       transform="translate(-762.14286,109.28571)">
      <rect
         y="192.28827"
         x="355.57141"
         height="4.3925962"
         width="336"
         id="rect7222"
         style="opacity:1;fill:#cccccc;fill-opacity:1;stroke:none" />
      <rect
         style="opacity:1;fill:#cccccc;fill-opacity:1;stroke:none"
         id="rect7224"
         width="336"
         height="4.3925962"
         x="355.57141"
         y="183.2644" />
      <rect
         y="174.24051"
         x="355.57141"
         height="4.3925962"
         width="336"
         id="rect7226"
         style="opacity:1;fill:#cccccc;fill-opacity:1;stroke:none" />
    </g>
    <g
       id="g7420"
       transform="translate(0,-6.9445512e-5)"
       inkscape:export-xdpi="22.610001"
       inkscape:export-ydpi="22.610001">
      <rect
         style="opacity:1;fill:#000000;fill-opacity:1;stroke:none"
         id="rect7257"
         width="368"
         height="126.28571"
         x="16.714264"
         y="36.719383" />
      <g
         style="fill:#999999"
         transform="translate(10.714286,-21.974872)"
         id="g7291">
        <path
           inkscape:connector-curvature="0"
           id="path7259"
           d="m 21.999984,71.993355 0,21.24805 0,1.19336 0,21.246095 272.428576,0 0,-21.246095 0,-1.19336 0,-21.24805 -272.428576,0 z"
           style="opacity:1;fill:#999999;fill-opacity:1;stroke:none" />
        <rect
           style="opacity:1;fill:#999999;fill-opacity:1;stroke:none"
           id="rect7271"
           width="336"
           height="4.3925962"
           x="21.99999"
           y="167.28827" />
        <rect
           y="158.2644"
           x="21.99999"
           height="4.3925962"
           width="328.85715"
           id="rect7273"
           style="opacity:1;fill:#999999;fill-opacity:1;stroke:none" />
        <rect
           style="opacity:1;fill:#999999;fill-opacity:1;stroke:none"
           id="rect7275"
           width="336"
           height="4.3925962"
           x="21.99999"
           y="149.24051" />
        <rect
           y="139.28827"
           x="21.99999"
           height="4.3925962"
           width="332.42856"
           id="rect7279"
           style="opacity:1;fill:#999999;fill-opacity:1;stroke:none" />
        <rect
           style="opacity:1;fill:#999999;fill-opacity:1;stroke:none"
           id="rect7281"
           width="329.57144"
           height="4.3925962"
           x="21.99999"
           y="130.2644" />
        <rect
           y="121.2405"
           x="21.99999"
           height="4.3925962"
           width="336"
           id="rect7283"
           style="opacity:1;fill:#999999;fill-opacity:1;stroke:none" />
      </g>
    </g>
    <g
       id="g7431"
       transform="translate(-0.7142849,11.428504)"
       inkscape:export-xdpi="22.610001"
       inkscape:export-ydpi="22.610001">
      <rect
         y="171.00511"
         x="17.428549"
         height="322"
         width="368"
         id="rect4136"
         style="opacity:1;fill:#000000;fill-opacity:1;stroke:none" />
      <g
         transform="matrix(0.91304348,0,0,0.91304348,-23.832311,-20.962271)"
         id="g5694">
        <rect
           style="opacity:1;fill:#cccccc;fill-opacity:1;stroke:none"
           id="rect4148"
           width="368"
           height="207"
           x="62.714275"
           y="225.50507" />
        <path
           inkscape:connector-curvature="0"
           id="rect5008"
           d="m 309.44677,310.95838 c -50.12111,70.55385 -49.70312,15.5683 -103.69739,13.49815 -39.29697,10.56624 -127.320809,40.43832 -127.320809,90.89024 l 304.571419,0 C 380.93596,367.23771 333.95907,291.51655 309.44677,310.95838 Z"
           style="opacity:1;fill:#4d4d4d;fill-opacity:1;stroke:none"
           sodipodi:nodetypes="ccccc" />
        <circle
           r="21.071428"
           cy="303.30618"
           cx="131.7849"
           id="path5021"
           style="opacity:1;fill:#4d4d4d;fill-opacity:1;stroke:none" />
      </g>
      <g
         style="fill:#999999"
         id="g7300"
         transform="translate(11.428565,310.88227)">
        <path
           style="opacity:1;fill:#999999;fill-opacity:1;stroke:none"
           d="m 21.999984,71.993355 0,21.24805 0,1.19336 0,21.246095 272.428576,0 0,-21.246095 0,-1.19336 0,-21.24805 -272.428576,0 z"
           id="path7302"
           inkscape:connector-curvature="0" />
        <rect
           y="167.28827"
           x="21.99999"
           height="4.3925962"
           width="336"
           id="rect7304"
           style="opacity:1;fill:#999999;fill-opacity:1;stroke:none" />
        <rect
           style="opacity:1;fill:#999999;fill-opacity:1;stroke:none"
           id="rect7306"
           width="328.85715"
           height="4.3925962"
           x="21.99999"
           y="158.2644" />
        <rect
           y="149.24051"
           x="21.99999"
           height="4.3925962"
           width="336"
           id="rect7308"
           style="opacity:1;fill:#999999;fill-opacity:1;stroke:none" />
        <rect
           style="opacity:1;fill:#999999;fill-opacity:1;stroke:none"
           id="rect7310"
           width="332.42856"
           height="4.3925962"
           x="21.99999"
           y="139.28827" />
        <rect
           y="130.2644"
           x="21.99999"
           height="4.3925962"
           width="329.57144"
           id="rect7312"
           style="opacity:1;fill:#999999;fill-opacity:1;stroke:none" />
        <rect
           style="opacity:1;fill:#999999;fill-opacity:1;stroke:none"
           id="rect7314"
           width="336"
           height="4.3925962"
           x="21.99999"
           y="121.2405" />
      </g>
    </g>
    <g
       id="g7412"
       transform="translate(0,-135.00002)"
       inkscape:export-xdpi="22.610001"
       inkscape:export-ydpi="22.610001">
      <rect
         style="opacity:1;fill:#000000;fill-opacity:1;stroke:none"
         id="rect7344"
         width="368"
         height="220.57143"
         x="408.14282"
         y="171.71939" />
      <g
         id="g7346"
         transform="matrix(0.91304348,0,0,0.91304348,366.88197,-20.247985)">
        <rect
           y="225.50507"
           x="62.714275"
           height="207"
           width="368"
           id="rect7348"
           style="opacity:1;fill:#cccccc;fill-opacity:1;stroke:none" />
        <path
           sodipodi:nodetypes="ccccc"
           style="opacity:1;fill:#4d4d4d;fill-opacity:1;stroke:none"
           d="m 309.44677,310.95838 c -50.12111,70.55385 -49.70312,15.5683 -103.69739,13.49815 -39.29697,10.56624 -127.320809,40.43832 -127.320809,90.89024 l 304.571419,0 C 380.93596,367.23771 333.95907,291.51655 309.44677,310.95838 Z"
           id="path7350"
           inkscape:connector-curvature="0" />
        <circle
           style="opacity:1;fill:#4d4d4d;fill-opacity:1;stroke:none"
           id="circle7352"
           cx="131.7849"
           cy="303.30618"
           r="21.071428" />
      </g>
      <path
         style="opacity:1;fill:#999999;fill-opacity:1;stroke:none"
         d="m 414.85712,306.44706 0,21.24804 0,1.19336 0,21.2461 272.42858,0 0,-21.2461 0,-1.19336 0,-21.24804 -272.42858,0 z"
         id="path7356"
         inkscape:connector-curvature="0" />
    </g>
    <g
       id="g7515"
       transform="translate(-27.857149,-161.42862)"
       inkscape:export-xdpi="22.610001"
       inkscape:export-ydpi="22.610001">
      <rect
         style="opacity:1;fill:#000000;fill-opacity:1;stroke:none"
         id="rect7448"
         width="368"
         height="192"
         x="435.99997"
         y="443.14798" />
      <g
         transform="translate(0.71428572,-39.285714)"
         id="g7510">
        <rect
           y="495.64795"
           x="451.99997"
           height="150.42857"
           width="336"
           id="rect7452"
           style="opacity:1;fill:#cccccc;fill-opacity:1;stroke:none" />
        <path
           sodipodi:nodetypes="ccccc"
           style="opacity:1;fill:#4d4d4d;fill-opacity:1;stroke:none"
           d="m 677.27748,535.09911 c -45.76276,64.41873 -45.38111,14.21454 -94.68023,12.3244 -35.87984,9.64744 -116.24943,36.92194 -116.24943,82.98674 l 278.08694,0 c -1.88455,-43.92566 -44.77649,-113.06237 -67.15728,-95.31114 z"
           id="path7454"
           inkscape:connector-curvature="0" />
        <circle
           style="opacity:1;fill:#4d4d4d;fill-opacity:1;stroke:none"
           id="circle7456"
           cx="515.06445"
           cy="528.1123"
           r="19.23913" />
      </g>
      <g
         transform="translate(419.28571,497.85714)"
         id="g7487">
        <rect
           style="opacity:1;fill:#000000;fill-opacity:1;stroke:none"
           id="rect7489"
           width="368"
           height="126.28571"
           x="16.714264"
           y="36.719383" />
        <g
           style="fill:#999999"
           transform="translate(10.714286,-21.974872)"
           id="g7491">
          <path
             inkscape:connector-curvature="0"
             id="path7493"
             d="m 21.999984,71.993355 0,21.24805 0,1.19336 0,21.246095 272.428576,0 0,-21.246095 0,-1.19336 0,-21.24805 -272.428576,0 z"
             style="opacity:1;fill:#999999;fill-opacity:1;stroke:none" />
          <rect
             style="opacity:1;fill:#999999;fill-opacity:1;stroke:none"
             id="rect7495"
             width="336"
             height="4.3925962"
             x="21.99999"
             y="167.28827" />
          <rect
             y="158.2644"
             x="21.99999"
             height="4.3925962"
             width="328.85715"
             id="rect7497"
             style="opacity:1;fill:#999999;fill-opacity:1;stroke:none" />
          <rect
             style="opacity:1;fill:#999999;fill-opacity:1;stroke:none"
             id="rect7499"
             width="336"
             height="4.3925962"
             x="21.99999"
             y="149.24051" />
          <rect
             y="139.28827"
             x="21.99999"
             height="4.3925962"
             width="332.42856"
             id="rect7501"
             style="opacity:1;fill:#999999;fill-opacity:1;stroke:none" />
          <rect
             style="opacity:1;fill:#999999;fill-opacity:1;stroke:none"
             id="rect7503"
             width="329.57144"
             height="4.3925962"
             x="21.99999"
             y="130.2644" />
          <rect
             y="121.2405"
             x="21.99999"
             height="4.3925962"
             width="336"
             id="rect7505"
             style="opacity:1;fill:#999999;fill-opacity:1;stroke:none" />
        </g>
      </g>
    </g>
    <g
       id="g8211"
       transform="translate(-0.7142849,-8.410356e-6)"
       inkscape:export-xdpi="22.610001"
       inkscape:export-ydpi="22.610001">
      <rect
         style="opacity:1;fill:#000000;fill-opacity:1;stroke:none"
         id="rect7534"
         width="368"
         height="129.14285"
         x="17.428549"
         y="523.86224" />
      <g
         id="g7536"
         transform="matrix(0.2802795,0,0,0.2802795,15.851023,474.58635)">
        <rect
           y="225.50507"
           x="62.714275"
           height="207"
           width="368"
           id="rect7538"
           style="opacity:1;fill:#cccccc;fill-opacity:1;stroke:none" />
        <path
           sodipodi:nodetypes="ccccc"
           style="opacity:1;fill:#4d4d4d;fill-opacity:1;stroke:none"
           d="m 309.44677,310.95838 c -50.12111,70.55385 -49.70312,15.5683 -103.69739,13.49815 -39.29697,10.56624 -127.320809,40.43832 -127.320809,90.89024 l 304.571419,0 C 380.93596,367.23771 333.95907,291.51655 309.44677,310.95838 Z"
           id="path7540"
           inkscape:connector-curvature="0" />
        <circle
           style="opacity:1;fill:#4d4d4d;fill-opacity:1;stroke:none"
           id="circle7542"
           cx="131.7849"
           cy="303.30618"
           r="21.071428" />
      </g>
      <path
         style="opacity:1;fill:#999999;fill-opacity:1;stroke:none"
         d="m 146.99998,537.87563 0,21.24805 0,1.19336 0,21.24609 179.7658,0 0,-21.24609 0,-1.19336 0,-21.24805 -179.7658,0 z"
         id="path7546"
         inkscape:connector-curvature="0" />
      <rect
         y="633.17053"
         x="32.714272"
         height="4.3925962"
         width="336"
         id="rect7548"
         style="opacity:1;fill:#999999;fill-opacity:1;stroke:none" />
      <rect
         style="opacity:1;fill:#999999;fill-opacity:1;stroke:none"
         id="rect7550"
         width="328.85715"
         height="4.3925962"
         x="32.714272"
         y="624.14667" />
      <rect
         y="615.1228"
         x="32.714272"
         height="4.3925962"
         width="336"
         id="rect7552"
         style="opacity:1;fill:#999999;fill-opacity:1;stroke:none" />
      <rect
         style="opacity:1;fill:#999999;fill-opacity:1;stroke:none"
         id="rect7554"
         width="219.35762"
         height="4.3925962"
         x="146.99998"
         y="605.17053" />
      <rect
         y="596.14667"
         x="146.99998"
         height="4.3925962"
         width="217.47232"
         id="rect7556"
         style="opacity:1;fill:#999999;fill-opacity:1;stroke:none" />
      <rect
         style="opacity:1;fill:#999999;fill-opacity:1;stroke:none"
         id="rect7558"
         width="221.71429"
         height="4.3925962"
         x="146.99998"
         y="587.12274" />
    </g>
    <g
       id="g8195"
       transform="translate(391.42856,-145.00001)"
       inkscape:export-xdpi="22.610001"
       inkscape:export-ydpi="22.610001">
      <rect
         y="668.86224"
         x="16.714264"
         height="129.14285"
         width="368"
         id="rect7580"
         style="opacity:1;fill:#000000;fill-opacity:1;stroke:none" />
      <g
         transform="matrix(0.2802795,0,0,0.2802795,247.2796,619.67118)"
         id="g7582">
        <rect
           style="opacity:1;fill:#cccccc;fill-opacity:1;stroke:none"
           id="rect7584"
           width="368"
           height="207"
           x="62.714275"
           y="225.50507" />
        <path
           inkscape:connector-curvature="0"
           id="path7586"
           d="m 309.44677,310.95838 c -50.12111,70.55385 -49.70312,15.5683 -103.69739,13.49815 -39.29697,10.56624 -127.320809,40.43832 -127.320809,90.89024 l 304.571419,0 C 380.93596,367.23771 333.95907,291.51655 309.44677,310.95838 Z"
           style="opacity:1;fill:#4d4d4d;fill-opacity:1;stroke:none"
           sodipodi:nodetypes="ccccc" />
        <circle
           r="21.071428"
           cy="303.30618"
           cx="131.7849"
           id="circle7588"
           style="opacity:1;fill:#4d4d4d;fill-opacity:1;stroke:none" />
      </g>
      <g
         id="g7610">
        <rect
           y="778.17053"
           x="31.999987"
           height="4.3925962"
           width="336"
           id="rect7592"
           style="opacity:1;fill:#999999;fill-opacity:1;stroke:none" />
        <rect
           style="opacity:1;fill:#999999;fill-opacity:1;stroke:none"
           id="rect7594"
           width="328.85715"
           height="4.3925962"
           x="31.999987"
           y="769.14667" />
        <rect
           y="760.1228"
           x="31.999987"
           height="4.3925962"
           width="336"
           id="rect7596"
           style="opacity:1;fill:#999999;fill-opacity:1;stroke:none" />
      </g>
      <g
         transform="translate(-114.2857,0)"
         id="g7604">
        <path
           style="opacity:1;fill:#999999;fill-opacity:1;stroke:none"
           d="m 146.28569,682.87563 0,21.24805 0,1.19336 0,21.24609 179.7658,0 0,-21.24609 0,-1.19336 0,-21.24805 -179.7658,0 z"
           id="path7590"
           inkscape:connector-curvature="0" />
        <rect
           style="opacity:1;fill:#999999;fill-opacity:1;stroke:none"
           id="rect7598"
           width="219.35762"
           height="4.3925962"
           x="146.28571"
           y="750.17053" />
        <rect
           y="741.14667"
           x="146.28571"
           height="4.3925962"
           width="217.47232"
           id="rect7600"
           style="opacity:1;fill:#999999;fill-opacity:1;stroke:none" />
        <rect
           style="opacity:1;fill:#999999;fill-opacity:1;stroke:none"
           id="rect7602"
           width="221.71429"
           height="4.3925962"
           x="146.28571"
           y="732.12274" />
      </g>
    </g>
    <g
       id="g8380"
       inkscape:export-xdpi="22.610001"
       inkscape:export-ydpi="22.610001">
      <rect
         y="664.31708"
         x="17.618608"
         height="220.57143"
         width="368"
         id="rect8227"
         style="opacity:1;fill:#000000;fill-opacity:1;stroke:none" />
      <g
         transform="matrix(0.96742129,0,0,0.96742129,3.7226574,24.17483)"
         id="g8300">
        <g
           transform="matrix(0.50113379,0,0,0.50113379,17.106098,339.87888)"
           id="g8252">
          <g
             id="g8254"
             transform="matrix(0.91304348,0,0,0.91304348,-24.5466,466.89485)">
            <rect
               y="225.50507"
               x="62.714275"
               height="207"
               width="368"
               id="rect8256"
               style="opacity:1;fill:#cccccc;fill-opacity:1;stroke:none" />
            <path
               sodipodi:nodetypes="ccccc"
               style="opacity:1;fill:#4d4d4d;fill-opacity:1;stroke:none"
               d="m 309.44677,310.95838 c -50.12111,70.55385 -49.70312,15.5683 -103.69739,13.49815 -39.29697,10.56624 -127.320809,40.43832 -127.320809,90.89024 l 304.571419,0 C 380.93596,367.23771 333.95907,291.51655 309.44677,310.95838 Z"
               id="path8258"
               inkscape:connector-curvature="0" />
            <circle
               style="opacity:1;fill:#4d4d4d;fill-opacity:1;stroke:none"
               id="circle8260"
               cx="131.7849"
               cy="303.30618"
               r="21.071428" />
          </g>
          <path
             style="opacity:1;fill:#999999;fill-opacity:1;stroke:none"
             d="m 23.42855,793.5899 0,21.24804 0,1.19336 0,21.2461 272.42858,0 0,-21.2461 0,-1.19336 0,-21.24804 -272.42858,0 z"
             id="path8262"
             inkscape:connector-curvature="0" />
        </g>
        <g
           id="g8264"
           transform="matrix(0.50113379,0,0,0.50113379,195.49841,339.87888)">
          <g
             transform="matrix(0.91304348,0,0,0.91304348,-24.5466,466.89485)"
             id="g8266">
            <rect
               style="opacity:1;fill:#cccccc;fill-opacity:1;stroke:none"
               id="rect8268"
               width="368"
               height="207"
               x="62.714275"
               y="225.50507" />
            <path
               inkscape:connector-curvature="0"
               id="path8270"
               d="m 309.44677,310.95838 c -50.12111,70.55385 -49.70312,15.5683 -103.69739,13.49815 -39.29697,10.56624 -127.320809,40.43832 -127.320809,90.89024 l 304.571419,0 C 380.93596,367.23771 333.95907,291.51655 309.44677,310.95838 Z"
               style="opacity:1;fill:#4d4d4d;fill-opacity:1;stroke:none"
               sodipodi:nodetypes="ccccc" />
            <circle
               r="21.071428"
               cy="303.30618"
               cx="131.7849"
               id="circle8272"
               style="opacity:1;fill:#4d4d4d;fill-opacity:1;stroke:none" />
          </g>
          <path
             inkscape:connector-curvature="0"
             id="path8274"
             d="m 23.42855,793.5899 0,21.24804 0,1.19336 0,21.2461 272.42858,0 0,-21.2461 0,-1.19336 0,-21.24804 -272.42858,0 z"
             style="opacity:1;fill:#999999;fill-opacity:1;stroke:none" />
        </g>
        <g
           transform="matrix(0.50113379,0,0,0.50113379,17.106098,442.48893)"
           id="g8276">
          <g
             id="g8278"
             transform="matrix(0.91304348,0,0,0.91304348,-24.5466,466.89485)">
            <rect
               y="225.50507"
               x="62.714275"
               height="207"
               width="368"
               id="rect8280"
               style="opacity:1;fill:#cccccc;fill-opacity:1;stroke:none" />
            <path
               sodipodi:nodetypes="ccccc"
               style="opacity:1;fill:#4d4d4d;fill-opacity:1;stroke:none"
               d="m 309.44677,310.95838 c -50.12111,70.55385 -49.70312,15.5683 -103.69739,13.49815 -39.29697,10.56624 -127.320809,40.43832 -127.320809,90.89024 l 304.571419,0 C 380.93596,367.23771 333.95907,291.51655 309.44677,310.95838 Z"
               id="path8282"
               inkscape:connector-curvature="0" />
            <circle
               style="opacity:1;fill:#4d4d4d;fill-opacity:1;stroke:none"
               id="circle8284"
               cx="131.7849"
               cy="303.30618"
               r="21.071428" />
          </g>
          <path
             style="opacity:1;fill:#999999;fill-opacity:1;stroke:none"
             d="m 23.42855,793.5899 0,21.24804 0,1.19336 0,21.2461 272.42858,0 0,-21.2461 0,-1.19336 0,-21.24804 -272.42858,0 z"
             id="path8286"
             inkscape:connector-curvature="0" />
        </g>
        <g
           id="g8288"
           transform="matrix(0.50113379,0,0,0.50113379,195.49841,442.48893)">
          <g
             transform="matrix(0.91304348,0,0,0.91304348,-24.5466,466.89485)"
             id="g8290">
            <rect
               style="opacity:1;fill:#cccccc;fill-opacity:1;stroke:none"
               id="rect8292"
               width="368"
               height="207"
               x="62.714275"
               y="225.50507" />
            <path
               inkscape:connector-curvature="0"
               id="path8294"
               d="m 309.44677,310.95838 c -50.12111,70.55385 -49.70312,15.5683 -103.69739,13.49815 -39.29697,10.56624 -127.320809,40.43832 -127.320809,90.89024 l 304.571419,0 C 380.93596,367.23771 333.95907,291.51655 309.44677,310.95838 Z"
               style="opacity:1;fill:#4d4d4d;fill-opacity:1;stroke:none"
               sodipodi:nodetypes="ccccc" />
            <circle
               r="21.071428"
               cy="303.30618"
               cx="131.7849"
               id="circle8296"
               style="opacity:1;fill:#4d4d4d;fill-opacity:1;stroke:none" />
          </g>
          <path
             inkscape:connector-curvature="0"
             id="path8298"
             d="m 23.42855,793.5899 0,21.24804 0,1.19336 0,21.2461 272.42858,0 0,-21.2461 0,-1.19336 0,-21.24804 -272.42858,0 z"
             style="opacity:1;fill:#999999;fill-opacity:1;stroke:none" />
        </g>
      </g>
    </g>
  </g>
</svg>
